<svg width="512" height="512" viewBox="0 0 512 512" fill="none" xmlns="http://www.w3.org/2000/svg">
<defs>
<linearGradient id="paint0_linear_1_18" x1="95.5" y1="317.5" x2="421.5" y2="94.5" gradientUnits="userSpaceOnUse">
<stop stop-color="#221E5F"/>
<stop offset="0.48" stop-color="#402788"/>
<stop offset="1" stop-color="#F15F3E"/>
</linearGradient>
<linearGradient id="paint1_linear_1_18" x1="231" y1="153" x2="281" y2="224" gradientUnits="userSpaceOnUse">
<stop stop-color="#26C6F8"/>
<stop offset="1" stop-color="#8A2BE2"/>
</linearGradient>
</defs>
<path d="M256 105C256 100.582 252.418 97 248 97C243.582 97 240 100.582 240 105V137C240 141.418 243.582 145 248 145C252.418 145 256 141.418 256 137V105Z" fill="url(#paint0_linear_1_18)"/>
<path d="M272 105C272 100.582 268.418 97 264 97C259.582 97 256 100.582 256 105V137C256 141.418 259.582 145 264 145C268.418 145 272 141.418 272 137V105Z" fill="url(#paint0_linear_1_18)"/>
<path d="M232 113C232 108.582 228.418 105 224 105C219.582 105 216 108.582 216 113V145C216 149.418 219.582 153 224 153C228.418 153 232 149.418 232 145V113Z" fill="url(#paint0_linear_1_18)"/>
<path d="M296 113C296 108.582 292.418 105 288 105C283.582 105 280 108.582 280 113V145C280 149.418 283.582 153 288 153C292.418 153 296 149.418 296 145V113Z" fill="url(#paint0_linear_1_18)"/>
<path d="M216 241C216 236.582 212.418 233 208 233H176C171.582 233 168 236.582 168 241C168 245.418 171.582 249 176 249H208C212.418 249 216 245.418 216 241Z" fill="url(#paint0_linear_1_18)"/>
<path d="M216 225C216 220.582 212.418 217 208 217H176C171.582 217 168 220.582 168 225C168 229.418 171.582 233 176 233H208C212.418 233 216 229.418 216 225Z" fill="url(#paint0_linear_1_18)"/>
<path d="M208 265C212.418 265 216 261.418 216 257C216 252.582 212.418 249 208 249H176C171.582 249 168 252.582 168 257C168 261.418 171.582 265 176 265H208Z" fill="url(#paint0_linear_1_18)"/>
<path d="M208 201C212.418 201 216 197.418 216 193C216 188.582 212.418 185 208 185H176C171.582 185 168 188.582 168 193C168 197.418 171.582 201 176 201H208Z" fill="url(#paint0_linear_1_18)"/>
<path d="M336 241C336 236.582 332.418 233 328 233H296C291.582 233 288 236.582 288 241C288 245.418 291.582 249 296 249H328C332.418 249 336 245.418 336 241Z" fill="url(#paint0_linear_1_18)"/>
<path d="M336 225C336 220.582 332.418 217 328 217H296C291.582 217 288 220.582 288 225C288 229.418 291.582 233 296 233H328C332.418 233 336 229.418 336 225Z" fill="url(#paint0_linear_1_18)"/>
<path d="M328 265C332.418 265 336 261.418 336 257C336 252.582 332.418 249 328 249H296C291.582 249 288 252.582 288 257C288 261.418 291.582 265 296 265H328Z" fill="url(#paint0_linear_1_18)"/>
<path d="M328 201C332.418 201 336 197.418 336 193C336 188.582 332.418 185 328 185H296C291.582 185 288 188.582 288 193C288 197.418 291.582 201 296 201H328Z" fill="url(#paint0_linear_1_18)"/>
<path d="M256 345C256 340.582 252.418 337 248 337C243.582 337 240 340.582 240 345V377C240 381.418 243.582 385 248 385C252.418 385 256 381.418 256 377V345Z" fill="url(#paint0_linear_1_18)"/>
<path d="M272 345C272 340.582 268.418 337 264 337C259.582 337 256 340.582 256 345V377C256 381.418 259.582 385 264 385C268.418 385 272 381.418 272 377V345Z" fill="url(#paint0_linear_1_18)"/>
<path d="M232 337C232 332.582 228.418 329 224 329C219.582 329 216 332.582 216 337V369C216 373.418 219.582 377 224 377C228.418 377 232 373.418 232 369V337Z" fill="url(#paint0_linear_1_18)"/>
<path d="M296 337C296 332.582 292.418 329 288 329C283.582 329 280 332.582 280 337V369C280 373.418 283.582 377 288 377C292.418 377 296 373.418 296 369V337Z" fill="url(#paint0_linear_1_18)"/>
<path d="M440 249H408C403.582 249 400 245.418 400 241C400 236.582 403.582 233 408 233H440C444.418 233 448 236.582 448 241C448 245.418 444.418 249 440 249Z" fill="url(#paint0_linear_1_18)"/>
<path d="M72 241C72 245.418 75.582 249 80 249H112C116.418 249 120 245.418 120 241C120 236.582 116.418 233 112 233H80C75.582 233 72 236.582 72 241Z" fill="url(#paint0_linear_1_18)"/>
<path d="M112 185H80C75.582 185 72 188.582 72 193C72 197.418 75.582 201 80 201H112C116.418 201 120 197.418 120 193C120 188.582 116.418 185 112 185Z" fill="url(#paint0_linear_1_18)"/>
<path d="M120 289H88C83.582 289 80 292.582 80 297C80 301.418 83.582 305 88 305H120C124.418 305 128 301.418 128 297C128 292.582 124.418 289 120 289Z" fill="url(#paint0_linear_1_18)"/>
<path d="M120 353C120 348.582 116.418 345 112 345H80C75.582 345 72 348.582 72 353C72 357.418 75.582 361 80 361H112C116.418 361 120 357.418 120 353Z" fill="url(#paint0_linear_1_18)"/>
<path d="M440 185H408C403.582 185 400 188.582 400 193C400 197.418 403.582 201 408 201H440C444.418 201 448 197.418 448 193C448 188.582 444.418 185 440 185Z" fill="url(#paint0_linear_1_18)"/>
<path d="M440 289H408C403.582 289 400 292.582 400 297C400 301.418 403.582 305 408 305H440C444.418 305 448 301.418 448 297C448 292.582 444.418 289 440 289Z" fill="url(#paint0_linear_1_18)"/>
<path d="M440 345H408C403.582 345 400 348.582 400 353C400 357.418 403.582 361 408 361H440C444.418 361 448 357.418 448 353C448 348.582 444.418 345 440 345Z" fill="url(#paint0_linear_1_18)"/>
<path d="M352 129C352 133.418 348.418 137 344 137H312C307.582 137 304 133.418 304 129C304 124.582 307.582 121 312 121H344C348.418 121 352 124.582 352 129Z" fill="url(#paint0_linear_1_18)"/>
<path d="M192 137C192 132.582 188.418 129 184 129C179.582 129 176 132.582 176 137V169C176 173.418 179.582 177 184 177C188.418 177 192 173.418 192 169V137Z" fill="url(#paint0_linear_1_18)"/>
<path d="M336 169V137C336 132.582 332.418 129 328 129C323.582 129 320 132.582 320 137V169C320 173.418 323.582 177 328 177C332.418 177 336 173.418 336 169Z" fill="url(#paint0_linear_1_18)"/>
<path d="M176 361C176 356.582 172.418 353 168 353C163.582 353 160 356.582 160 361V393C160 397.418 163.582 401 168 401C172.418 401 176 397.418 176 393V361Z" fill="url(#paint0_linear_1_18)"/>
<path d="M352 361C352 356.582 348.418 353 344 353C339.582 353 336 356.582 336 361V393C336 397.418 339.582 401 344 401C348.418 401 352 397.418 352 393V361Z" fill="url(#paint0_linear_1_18)"/>
<path d="M352 305V273C352 268.582 348.418 265 344 265C339.582 265 336 268.582 336 273V305C336 309.418 339.582 313 344 313C348.418 313 352 309.418 352 305Z" fill="url(#paint0_linear_1_18)"/>
<path d="M176 305C176 309.418 172.418 313 168 313C163.582 313 160 309.418 160 305V273C160 268.582 163.582 265 168 265C172.418 265 176 268.582 176 273V305Z" fill="url(#paint0_linear_1_18)"/>
<path d="M192 273V305C192 309.418 188.418 313 184 313C179.582 313 176 309.418 176 305V273C176 268.582 179.582 265 184 265C188.418 265 192 268.582 192 273Z" fill="url(#paint0_linear_1_18)"/>
<path d="M336 273C336 268.582 332.418 265 328 265C323.582 265 320 268.582 320 273V305C320 309.418 323.582 313 328 313C332.418 313 336 309.418 336 305V273Z" fill="url(#paint0_linear_1_18)"/>
<path d="M296 153H216C211.582 153 208 156.582 208 161V241C208 245.418 211.582 249 216 249H296C300.418 249 304 245.418 304 241V161C304 156.582 300.418 153 296 153ZM296 169V233H224V169H296Z" fill="url(#paint1_linear_1_18)"/>
<path d="M264.112 217.376L260.736 226H256.384L262.784 208H265.552L272.096 226H267.6L264.112 217.376ZM264.24 214.528L265.584 217.856H262.88L264.24 214.528Z" fill="white"/>
<path d="M278.512 208V226H274.336V208H278.512Z" fill="white"/>
<path d="M136 257H168C172.418 257 176 253.418 176 249C176 244.582 172.418 241 168 241H136C131.582 241 128 244.582 128 249C128 253.418 131.582 257 136 257Z" fill="url(#paint0_linear_1_18)"/>
<path d="M136 305H168C172.418 305 176 301.418 176 297C176 292.582 172.418 289 168 289H136C131.582 289 128 292.582 128 297C128 301.418 131.582 305 136 305Z" fill="url(#paint0_linear_1_18)"/>
<path d="M344 305H376C380.418 305 384 301.418 384 297C384 292.582 380.418 289 376 289H344C339.582 289 336 292.582 336 297C336 301.418 339.582 305 344 305Z" fill="url(#paint0_linear_1_18)"/>
<path d="M344 257H376C380.418 257 384 253.418 384 249C384 244.582 380.418 241 376 241H344C339.582 241 336 244.582 336 249C336 253.418 339.582 257 344 257Z" fill="url(#paint0_linear_1_18)"/>
<path d="M128 281V265C128 260.582 124.418 257 120 257C115.582 257 112 260.582 112 265V281C112 285.418 115.582 289 120 289C124.418 289 128 285.418 128 281Z" fill="url(#paint0_linear_1_18)"/>
<path d="M120 321V337C120 341.418 123.582 345 128 345C132.418 345 136 341.418 136 337V321C136 316.582 132.418 313 128 313C123.582 313 120 316.582 120 321Z" fill="url(#paint0_linear_1_18)"/>
<path d="M176 161C176 156.582 172.418 153 168 153C163.582 153 160 156.582 160 161V193C160 197.418 163.582 201 168 201C172.418 201 176 197.418 176 193V161Z" fill="url(#paint0_linear_1_18)"/>
<path d="M136 169V137C136 132.582 132.418 129 128 129C123.582 129 120 132.582 120 137V169C120 173.418 123.582 177 128 177C132.418 177 136 173.418 136 169Z" fill="url(#paint0_linear_1_18)"/>
<path d="M136 217V201C136 196.582 132.418 193 128 193C123.582 193 120 196.582 120 201V217C120 221.418 123.582 225 128 225C132.418 225 136 221.418 136 217Z" fill="url(#paint0_linear_1_18)"/>
<path d="M400 321V337C400 341.418 396.418 345 392 345C387.582 345 384 341.418 384 337V321C384 316.582 387.582 313 392 313C396.418 313 400 316.582 400 321Z" fill="url(#paint0_linear_1_18)"/>
<path d="M392 289C396.418 289 400 285.418 400 281V265C400 260.582 396.418 257 392 257C387.582 257 384 260.582 384 265V281C384 285.418 387.582 289 392 289Z" fill="url(#paint0_linear_1_18)"/>
<path d="M400 217V201C400 196.582 396.418 193 392 193C387.582 193 384 196.582 384 201V217C384 221.418 387.582 225 392 225C396.418 225 400 221.418 400 217Z" fill="url(#paint0_linear_1_18)"/>
<path d="M384 169V137C384 132.582 380.418 129 376 129C371.582 129 368 132.582 368 137V169C368 173.418 371.582 177 376 177C380.418 177 384 173.418 384 169Z" fill="url(#paint0_linear_1_18)"/>
<path d="M360 201C364.418 201 368 197.418 368 193C368 188.582 364.418 185 360 185H328C323.582 185 320 188.582 320 193C320 197.418 323.582 201 328 201H360Z" fill="url(#paint0_linear_1_18)"/>
<path d="M368 161C368 156.582 364.418 153 360 153C355.582 153 352 156.582 352 161V193C352 197.418 355.582 201 360 201C364.418 201 368 197.418 368 193V161Z" fill="url(#paint0_linear_1_18)"/>
<path d="M320 361C320 356.582 316.418 353 312 353C307.582 353 304 356.582 304 361V393C304 397.418 307.582 401 312 401C316.418 401 320 397.418 320 393V361Z" fill="url(#paint0_linear_1_18)"/>
<path d="M192 361C192 356.582 188.418 353 184 353C179.582 353 176 356.582 176 361V393C176 397.418 179.582 401 184 401C188.418 401 192 397.418 192 393V361Z" fill="url(#paint0_linear_1_18)"/>
<path d="M136 369V337C136 332.582 132.418 329 128 329C123.582 329 120 332.582 120 337V369C120 373.418 123.582 377 128 377C132.418 377 136 373.418 136 369Z" fill="url(#paint0_linear_1_18)"/>
<path d="M400 369V337C400 332.582 396.418 329 392 329C387.582 329 384 332.582 384 337V369C384 373.418 387.582 377 392 377C396.418 377 400 373.418 400 369Z" fill="url(#paint0_linear_1_18)"/>
<path d="M160 369C160 373.418 156.418 377 152 377H120C115.582 377 112 373.418 112 369C112 364.582 115.582 361 120 361H152C156.418 361 160 364.582 160 369Z" fill="url(#paint0_linear_1_18)"/>
<path d="M408 377H376C371.582 377 368 373.418 368 369C368 364.582 371.582 361 376 361H408C412.418 361 416 364.582 416 369C416 373.418 412.418 377 408 377Z" fill="url(#paint0_linear_1_18)"/>
<path d="M368 409H336C331.582 409 328 405.418 328 401C328 396.582 331.582 393 336 393H368C372.418 393 376 396.582 376 401C376 405.418 372.418 409 368 409Z" fill="url(#paint0_linear_1_18)"/>
<path d="M176 401C176 405.418 172.418 409 168 409H136C131.582 409 128 405.418 128 401C128 396.582 131.582 393 136 393H168C172.418 393 176 396.582 176 401Z" fill="url(#paint0_linear_1_18)"/>
<path d="M160 201C164.418 201 168 197.418 168 193C168 188.582 164.418 185 160 185H128C123.582 185 120 188.582 120 193C120 197.418 123.582 201 128 201H160Z" fill="url(#paint0_linear_1_18)"/>
<path d="M168 161C168 156.582 164.418 153 160 153C155.582 153 152 156.582 152 161V193C152 197.418 155.582 201 160 201C164.418 201 168 197.418 168 193V161Z" fill="url(#paint0_linear_1_18)"/>
<path d="M352 161C352 156.582 348.418 153 344 153C339.582 153 336 156.582 336 161V193C336 197.418 339.582 201 344 201C348.418 201 352 197.418 352 193V161Z" fill="url(#paint0_linear_1_18)"/>
<path d="M360 201C364.418 201 368 197.418 368 193C368 188.582 364.418 185 360 185H328C323.582 185 320 188.582 320 193C320 197.418 323.582 201 328 201H360Z" fill="url(#paint0_linear_1_18)"/>
<path d="M408 233H376C371.582 233 368 236.582 368 241C368 245.418 371.582 249 376 249H408C412.418 249 416 245.418 416 241C416 236.582 412.418 233 408 233Z" fill="url(#paint0_linear_1_18)"/>
<path d="M120 241C120 245.418 123.582 249 128 249H160C164.418 249 168 245.418 168 241C168 236.582 164.418 233 160 233H128C123.582 233 120 236.582 120 241Z" fill="url(#paint0_linear_1_18)"/>
<path d="M136 281V265C136 260.582 132.418 257 128 257C123.582 257 120 260.582 120 265V281C120 285.418 123.582 289 128 289C132.418 289 136 285.418 136 281Z" fill="url(#paint0_linear_1_18)"/>
<path d="M400 281V265C400 260.582 396.418 257 392 257C387.582 257 384 260.582 384 265V281C384 285.418 387.582 289 392 289C396.418 289 400 285.418 400 281Z" fill="url(#paint0_linear_1_18)"/>
<path d="M368 305C368 309.418 364.418 313 360 313H328C323.582 313 320 309.418 320 305C320 300.582 323.582 297 328 297H360C364.418 297 368 300.582 368 305Z" fill="url(#paint0_linear_1_18)"/>
<path d="M168 297C168 301.418 171.582 305 176 305H208C212.418 305 216 301.418 216 297C216 292.582 212.418 289 208 289H176C171.582 289 168 292.582 168 297Z" fill="url(#paint0_linear_1_18)"/>
<path d="M152 345H120C115.582 345 112 348.582 112 353C112 357.418 115.582 361 120 361H152C156.418 361 160 357.418 160 353C160 348.582 156.418 345 152 345Z" fill="url(#paint0_linear_1_18)"/>
<path d="M400 353C400 357.418 396.418 361 392 361H360C355.582 361 352 357.418 352 353C352 348.582 355.582 345 360 345H392C396.418 345 400 348.582 400 353Z" fill="url(#paint0_linear_1_18)"/>
</svg>