<?xml version="1.0" encoding="utf-8"?>
<!-- Generator: Adobe Illustrator 19.2.1, SVG Export Plug-In . SVG Version: 6.00 Build 0)  -->
<svg version="1.1" id="layer" xmlns="http://www.w3.org/2000/svg" xmlns:xlink="http://www.w3.org/1999/xlink" x="0px" y="0px"
	 viewBox="0 0 652 652" style="enable-background:new 0 0 652 652;" xml:space="preserve">
<style type="text/css">
	.st0{fill:#57B76F;}
</style>
<path d="M34.5,400.8H21v-64.4h13.5V400.8z M69.1,387.1l-15.4-50.7H39.6l21.7,64.4h15.7l21.7-64.4H84.5L69.1,387.1z M133.3,335.2
	c-5.6,0-10.4,0.8-14.7,2.5c-4.3,1.7-7.8,4-10.7,7c-2.9,3-5.1,6.5-6.6,10.5c-1.5,4.1-2.2,8.5-2.2,13.4c0,4.8,0.7,9.3,2.2,13.3
	c1.5,4.1,3.7,7.6,6.6,10.5c2.9,3,6.5,5.3,10.7,7c4.3,1.7,9.2,2.5,14.7,2.5c1.6,0,3.3-0.1,4.9-0.2c1.7-0.2,3.3-0.4,4.9-0.7
	c1.6-0.3,3.1-0.6,4.6-1.1c1.4-0.4,2.8-0.9,3.9-1.5l-1.9-9.9c-2.1,0.8-4.3,1.4-6.9,1.9c-2.5,0.5-5,0.7-7.4,0.7
	c-7.3,0-13-1.9-16.9-5.7c-3.9-3.8-5.8-9.5-5.8-16.9c0-7.4,1.9-13.1,5.8-16.9c3.9-3.8,9.5-5.7,16.9-5.7c2.5,0,4.9,0.2,7.4,0.7
	c2.5,0.5,4.8,1.1,6.9,1.9l1.9-9.9c-1.2-0.6-2.5-1.1-3.9-1.5s-3-0.8-4.6-1.1c-1.6-0.3-3.2-0.5-4.9-0.7
	C136.5,335.3,134.9,335.2,133.3,335.2 M178,400.8h39v-10.7h-25.4v-16.6h24v-10.7h-24v-15.6h25.1v-10.7H178V400.8z M249.2,387.1
	l-15.4-50.7h-14.1l21.7,64.4h15.7l21.7-64.4h-14.1L249.2,387.1z M297.3,336.4h-13.5v64.4h13.5V336.4z M308.8,400.8h19.4
	c5.7,0,10.8-0.8,15.4-2.4c4.6-1.6,8.5-3.9,11.8-6.7c3.3-2.9,5.8-6.3,7.5-10.2c1.8-3.9,2.7-8.2,2.7-12.9c0-4.6-0.9-8.9-2.7-12.9
	c-1.8-3.9-4.3-7.3-7.5-10.2c-3.3-2.9-7.2-5.1-11.8-6.7c-4.6-1.6-9.8-2.4-15.4-2.4h-19.4V400.8z M322.4,390.1v-42.9h6.2
	c3.4,0,6.6,0.5,9.5,1.5c2.9,1,5.4,2.4,7.5,4.2c2.1,1.8,3.7,4.1,4.9,6.8c1.2,2.7,1.7,5.7,1.7,9c0,3.4-0.6,6.4-1.7,9
	c-1.2,2.7-2.8,4.9-4.9,6.8c-2.1,1.9-4.6,3.3-7.5,4.2c-2.9,1-6.1,1.5-9.5,1.5H322.4z M373,400.8h39v-10.7h-25.4v-16.6h24v-10.7h-24
	v-15.6h25.1v-10.7H373V400.8z M477.3,400.8v-64.4h-13v42.2l-30.1-42.2h-13v64.4h13v-42.2l30.1,42.2H477.3z M529.3,382.4
	c0-2.8-0.5-5.2-1.6-7.3c-1.1-2.1-2.5-4-4.4-5.6c-1.8-1.6-3.9-3-6.2-4.3c-2.4-1.2-4.8-2.4-7.4-3.5c-1.9-0.8-3.5-1.6-4.8-2.3
	c-1.3-0.7-2.3-1.4-3-2c-0.8-0.7-1.3-1.4-1.6-2.2c-0.3-0.8-0.4-1.7-0.4-2.7c0-2.3,0.9-3.9,2.6-5c1.7-1.1,4-1.6,6.9-1.6
	c2.6,0,5.1,0.3,7.6,1c2.5,0.7,4.9,1.6,7.1,2.7l2.5-10.3c-2.7-1.4-5.5-2.5-8.4-3.1c-2.9-0.6-6.1-1-9.6-1c-6.8,0-12.2,1.6-16.2,4.8
	s-6,7.8-6,13.7c0,2.4,0.4,4.5,1.2,6.4c0.8,1.9,1.9,3.6,3.4,5.2c1.5,1.5,3.3,2.9,5.5,4.2c2.2,1.3,4.7,2.5,7.5,3.6
	c4,1.6,7,3.2,8.9,4.6c1.9,1.5,2.9,3.4,2.9,5.7c0,2.5-1,4.4-3.1,5.8c-2,1.3-4.7,2-7.9,2c-3,0-6-0.4-8.8-1.2c-2.9-0.8-5.5-1.7-7.8-2.8
	l-2.8,10.3c2.9,1.4,6.1,2.5,9.5,3.2c3.4,0.7,6.9,1.1,10.3,1.1c3.6,0,6.9-0.5,9.9-1.5c3-1,5.5-2.3,7.6-4.1c2.1-1.7,3.7-3.8,4.9-6.2
	C528.7,387.9,529.3,385.2,529.3,382.4 M550.8,336.4h-13.5v64.4h13.5V336.4z M596.5,336.4h-14.7l-24.5,64.4h14l4.5-13.5h26.5
	l4.5,13.5h14L596.5,336.4z M598.9,376.5h-19.3l9.7-29.3L598.9,376.5z"/>
<path d="M383.8,248.4c0,0,5.8-1.1,9.4,0.6c3.6,1.7,11.1,4.2,13.3,5c2.1,0.8,3.9,0.8,6.1,0.7c2.2-0.1,4.7-0.7,5.4-0.9
	c0.7-0.7,3.4-0.5,2.8-2c0.6,0.1,1.5,0.5,2,0.2c-0.2-0.2-0.2-0.5-0.4-0.7c1.3,0.2,2.1,1.3,3.5,0.5c-0.8-0.5-1.6-1-2.3-1.5
	c1.3,0.2,2.6,0.8,3.9,0.3c-0.2-0.5-0.9-0.7-1.3-1.1c1.2,0.1,2.9,0.9,3.9,0.2c-0.8-0.3-1.7-0.5-2.3-1c0.9-0.1,1.7,0.3,2.7-0.1
	c1-0.3,1.9-0.6,3-0.5c1.1,0.1,2.2,0.2,3.3,0.4c0.5,0.1,1.4,0.1,1.8,0.5c0,0-0.3-0.6-1-0.9c0,0,1.6-0.1,2.2,0.2c0,0,2.5-1.4,4.6-0.4
	c0,0,1.5-1.8,2.4-1.9c0.7-0.2,1-0.2,1-0.2s-0.9,1-1.2,1.7l0.1,0.3c0,0,1.3-0.6,1.6-0.7c0.3-0.2,0.2,0.3-0.3,1.1
	c-0.5,0.8-0.1,0.8-0.9,1.6c-0.7,0.9-0.7,1.1-0.8,1.2c0,0.1,1.2,1.9,1.8,3c0.7,1.1,1.5,3.9,2,4.9c0.5,1,1,2.8,1.2,3.3
	c0.2,0.5-0.4,3.3-0.7,4c-0.3,0.7-0.3,0.7-1.1,1.2c-0.8,0.4-1.3,0.5-1.8,0.4c-0.4-0.1-0.9-0.5-1.3-1.2c-0.4-0.7-0.7-1-0.6-1.4
	c0,0-0.9-0.7-2.7-2.3c-1.7-1.6-2.9-2.2-3.6-2.3c-0.7-0.1-2.5,0-3.3-0.1c0,0-4.5,5-7.1,6.9c0,0-0.2,2-1.4,4.2
	c-1.2,2.1-2.1,2.9-2.2,3.2c-0.2,0.3-0.7,0.9-0.7,1.1c0,0.2,1.2,1.9,2.1,3.2c0.9,1.3,1.2,2.2,1.6,3.1c0.4,0.8,0.4,2.8,0.1,4
	c-0.3,1.3-0.6,2.6-0.6,3c0,0.4,0.4,2.1,0.1,3.1c-0.3,1-1.3,2.2-1.4,2.4c-0.1,0.2-0.4,0.4-0.4,0.4s-1.3,3.6-2,4.4
	c0,0-1.5-1.9-1.1-2.9c0,0,0.1-0.7,0.2-0.9c0.1-0.2,0.3-0.9,0.3-0.9c0-0.6,0.1-1.2,0.4-1.5c0.3-0.3,0.4-0.5,0.6-0.9
	c0.2-0.3,0.6-2.1,1-3.3c0.4-1.2,0.3-3.5-0.4-4.9c-0.7-1.4-3.5-3.7-4-4.2c-0.5-0.5-1.5-1.9-1.5-1.9l-0.8-1.2c0,0-2.3,0.7-4.7,3
	c-2.4,2.2-6.2,5.9-6.7,6.5c-0.5,0.6-2.9,3.3-3.3,4c-0.3,0.7-0.6,1.9-0.7,2.5c-0.1,0.6-0.2,1.4-0.2,1.4s1.1,1.7,0.9,2.6
	c0,0-3.2-0.1-4.4-0.8c0,0,0.2-1.7,0.8-2.8c0.5-1.1,0.7-1.1,0.1-1c-0.6,0.1-0.8-0.3,0.1-1.6c0.9-1.3,1.9-3,2.9-4c1-1,1.7-2.1,1.9-2.3
	c0.1-0.2-0.2-1.1,0.7-2c0.9-0.9,1.7-1.9,2.5-3.1c0.8-1.2,1.1-1.8,1.3-2.5c0.3-0.7,0.4-1.8,0.4-1.8s-5.8-0.1-10.1-2.1
	c-4.4-2-8.6-5.4-8.6-5.4s-0.5-1-0.9-0.6c-0.5,0.4-2.2,3.5-5.1,5.1c-2.9,1.6-3.5,1.5-3.4,2.8c0.1,1.4,0.8,3.4,1.7,4.6
	c0.9,1.2,1.8,3.2,2,3.8c0.2,0.6-0.1,2.8-0.4,4c-0.3,1.2-1.4,2.8-1.4,2.8s-2.4-1.4-2.3-3.1c0,0,0.1-0.8,0.4-1.4
	c0.3-0.5,0.4-0.9,0.4-1c0-0.2-0.6-0.5-0.7-1.6c-0.1-1.1-0.2-1.9-0.2-2c0-0.2-1.1-1.8-1.9-3.4c-0.8-1.6-2.8-3.8-2.8-3.8
	s-1.2-1.4-0.2-2.1c1-0.7,2.6-1.9,3-2.2c0.4-0.3,1-1.2,1-1.2s-1.5,0.1-2.9,1.3c-1.4,1.2-3.2,2.6-4.7,3.9c-1.5,1.3-2.7,1.9-3.8,3.4
	c-1.1,1.4-1.9,2.4-2.2,3.2c-0.3,0.7-0.4,0.5-0.8,1.2c-0.4,0.7-1.4,1.9-1.7,2.7c-0.3,0.7,0.4,2,0.1,3.3c0,0-3.1-0.5-4-1.5
	c0,0,0.1-1.5,1.1-2.2c1-0.7,1.2-0.9,1.3-1.1c0-0.2-0.8,0.4-0.7-0.6c0.1-1,0.8-1.7,1.7-2.7c0.9-1,2.9-3.6,3.6-4.7
	c0.6-1.1,1.3-2.8,1.5-3.3c0.3-0.5,0.4-1.3,1-1.6c0.7-0.3,2.7-1.5,3.3-2c0.6-0.5,2.5-2.3,2.5-2.3s0.8-1.6,1-4.7
	c0.3-3.1,0.7-8.1,3.1-10.3c0,0-1.8-3.3-3.8-3.4c-2-0.1-2.4,0.7-3.8,2.2c-1.4,1.5-4.2,3.3-6.1,4.6c-1.9,1.2-3.1,0.8-4.2,1.3
	c-1.1,0.5-2.5,1.9-3.2,2.3c-0.8,0.5-2.2,1.8-2.8,2.4c-0.6,0.7-0.8,0.9-1.1,1.3c0,0-0.6-0.7,0.1-1.9c0,0-1.6,1.1-2.1,2.4
	c0,0,0.2-1.7,0.5-2.2c0.3-0.6-0.4-0.4-0.4-0.4s0.3-0.9,0.8-1.4c0.4-0.5,1.2-1.4,1.6-1.6c0.4-0.2,0.8-0.8,0.8-0.8s-1.9,0.3-2.7,0.9
	c-0.8,0.6-1.6,0.8-1.9,1.3c-0.3,0.5-0.3-0.3,0.7-1.3c1-1,2-1.3,2.7-1.6c0.7-0.3,1.1-0.5,1.3-0.9c0.2-0.4,0.6-1.1,0.7-1.2
	c0.1-0.1,0.3-1,0.3-1s-1.2,1-2.9,1.3c-1.7,0.3-3.9-0.6-3.9-0.6s3.6-0.2,4.8-1c0,0-2.7,0.3-4.3,0c0,0,1.4-0.4,2.4-0.7
	c0.9-0.4,2.3-0.8,3.4-1.2c1.1-0.4,1.9-0.9,1.9-0.9s-1.4-0.5-2.4-0.1c-1.1,0.4-1.9,0.5-2.6,0.6c0,0,1-0.6,2.1-1
	c1-0.5,2.4-0.3,3.7-0.6c1.4-0.3,2.3-0.5,2.6-0.6c0.2-0.1-3.3-1.3-4.9-0.5c-1.6,0.8-2.5,0.8-2.5,0.8s0.8-0.3,1.8-1
	c1-0.7,2.2-0.9,3.1-1c0,0-3.2-1.5-4.9-1.2c-1.7,0.2-2.4-0.5-2.6-0.5c-0.2,0,1.9-0.5,3.3-0.2c1.4,0.3,5.4,1.1,6.1,1.3
	c0.6,0.2,1.2,0.2,1.2,0.2s-1.6-0.4-2.5-1.2c0,0,2.2,0.5,3.9,0.4c1.6,0,5.7-1.8,8.6-1.4c3,0.4,6.2,1.7,8.1,3.5
	C383.4,247.4,383.8,248.4,383.8,248.4 M570.1,285.9c0.1,0.2,0.3,0.4,0.6,0.6c0.5,0.2,1.6,0.3,1.6,0.3s0.7,0.1,0.8-0.3
	c0.1-0.4,0.5-1.7-1-2c-0.2-0.2-1.4-0.8-1.4-0.8s-4.1-2.6-4.6-3c-0.5-0.4-1-1.4-1.1-1.7c0-0.1-0.1-0.8-0.2-1c0-0.3,0-0.4,0.1-1
	c0.1-0.6,0.4-0.6,0.8-1c0.4-0.5,0.8-0.8,1.4-1.1c0.6-0.2,0.7,0,1.5-0.3c0.8-0.2,0.8-0.6,0.8-0.6c0.2,0,0.3-0.3,0.7-0.7
	c0.4-0.4,0-0.9-0.3-1.3c-0.3-0.5-0.6-1.2-1.3-1.8c-0.8-0.6-1.7-0.8-2-0.9c-0.3,0-0.7-0.3-1.5-0.4c-0.7-0.2-1.7-1.5-1.9-1.7
	c-0.2-0.2-0.3,0.1-0.3,0.1c-0.3,0.9,0.3,2.7,0.3,2.7s-2.8,1.6-3.2,1.9c-0.4,0.3-13.3,3.5-14.1,3.6c-1,0.1-2.1-0.4-3.4-1.4
	c-1.3-1-4.8-6-5.5-6.8c-0.7-0.8-0.3-1.5-0.2-2.6c0.2-1.1-0.3-1.4-0.7-1.6c-0.4-0.2-0.5,0.4-0.5,0.4s-2.4,2.1-1.2,4.6
	c1.2,2.5,6.6,8.8,6.6,8.8s0.7,0.9,0.6,1.8c0,1,0,4.1,0.4,6.1c0,0-1.4,3-1.9,3.5c-0.5,0.5-0.5,0.7-0.4,1.3c0.1,0.6,0.7,6.8,0.7,6.8
	s0.2,0.6,0.7,0.5c0.6-0.1,1-0.8,1-2.1c0.1-1.2-0.2-3.3-0.2-3.3s0-0.6,0.6-1.2c0.5-0.6,3.6-3.6,3.6-3.6l0.8,3c0,0,0.2,0.4,0.8,1.1
	c0.6,0.7,2.5,2.7,2.5,2.7s0.4,0.6,1,0.5c0.6-0.1,1.8-0.4,1.8-0.4s0.8-0.1,0.7-0.5c-0.1-0.5-0.3-2.2-2-1.7c0,0-1.6-1.2-1.8-1.7
	c0-0.2,0.1-2.8,0.3-3.6c0.2-0.8,0.1-1.2,0.7-1.3c0.6-0.1,1.2-0.3,1.2-0.3l5.2-1.5l1.9,7.4c0.4,1.4,1.3,1.2,1.3,1.2s1-0.2,1.8-0.5
	c0.8-0.2,0.6-0.8,0.6-0.8c-0.1-0.8-0.7-1.4-1.1-1.4c-0.4,0-0.8-0.2-0.8-0.2s-0.2-5.5,0.1-6.2c0.3-0.7,1.1-0.4,1.1-0.4
	S568,284.9,570.1,285.9 M521.7,276.9c-0.1-0.1-0.8-0.5-0.8-0.5l-0.5-0.2c0,0-2.2-1.1-2.5-1.2c-0.3-0.1-0.3-0.3-0.3-0.5
	c-0.1-0.3-0.2-0.6-0.2-0.6s0.1-0.4-0.4-0.7c-0.5-0.3-1.6-1.3-1.8-1.3c-0.2-0.1-0.6-0.3-0.7-0.3c-0.2-0.1-0.6-0.1-0.9-0.2
	c-0.3-0.1-0.9-0.2-0.9-0.2s-0.7-0.2-0.8-0.2c-0.4,0-1-0.6-1.5-0.5c-0.6,0.1-0.8,0.4-1.3,0.6c-0.5,0.2-0.8,0.1-1.2,0.2
	c-0.4,0.2-0.1,0.3-0.6,0.6c-0.4,0.3-0.9,0.8-0.9,1.5c0,0.3,0,0.4,0,0.4c-0.2,0.2-0.5,0.4-0.7,0.4c-0.5,0-1.9,0.5-1.9,0.5
	c-0.1,0-0.1,0.1-0.2,0.1c-0.1,0-0.1,0.1-0.2,0.1c0,0-0.1,0-0.1,0c-0.1,0-0.2,0-0.3,0c-0.1,0-0.2,0-0.4,0c-0.3,0-0.5,0-0.8,0
	c-0.3,0-0.5,0-0.8,0c-0.3,0-0.5,0.1-0.8,0.1c-0.2,0-0.4,0.1-0.6,0.2c-0.9,0.4-2,0-3,0.1c-1.2,0.1-2.5,0.4-3.6,0.9
	c-0.9,0.4-1.6,0.6-1.6,0.6s-6.6-0.4-8.1-0.3c-1.5,0.1-6.8,0.7-7.3,0.8c-0.4,0-2.2,0.1-2.2,0.1c-0.4,0.2-2.3,0.4-4.4-0.4
	c-2.1-0.8-2.2-3.8-4.1-5.9c-1.8-2.1-3.9-2.8-5.1-3.2c-0.4-0.1-0.7-0.3-1.1-0.4c-0.2-0.1-0.3-0.1-0.4-0.3c-0.1-0.1-0.3-0.4-0.4-0.2
	c-0.3,0.3,0.5,0.7,0.6,0.9c0.2,0.3,0,0.7,0.2,1c0.1,0.1,0.4,0.2,0.4,0.4c0,0.2-0.3,0.2-0.4,0.4c-0.1,0.4,0.7,0.6,0.9,0.8
	c0.2,0.2,0.1,0.3,0.1,0.6c0,0.3,0.1,0.3,0.3,0.5c0.2,0.2,0,0.3,0.1,0.5c0.1,0.2,0.4,0.4,0.5,0.6c0.4,0.4,1,0.1,1,0.3
	c0.1,0.2-0.3,0.2-0.5,0.3c-0.2,0.1-0.5,0.1-0.5,0.3c0,0.3,0.5,0.3,0.7,0.3c-0.1,0.4-0.5,0.5-0.1,0.9c0.3,0.3,0.5,0.2,0.3,0.7
	c-0.1,0.5,0.3,0.6,0.6,1c0.2,0.3-0.1,0.4,0.1,0.7c0.1,0.1,0.3,0.1,0.4,0.3c0.1,0.2,0.1,0.4,0.1,0.6c0,0.2,0,0.2,0.2,0.4
	c0.2,0.2,0.6,0.2,0.8,0.3c0.1,0.1,0,0.2,0.1,0.4c0.1,0.1,0.3,0.3,0.5,0.3c0.5,0.3,0.9,0.5,1.5,0.2c0.1,0.2,0,0.7,0.1,0.8
	c0.2,0.2,0.2-0.1,0.4-0.1c0.3-0.1,0.5,0.6,0.9,0.4c0.1,0.2,0.2,0.3,0.4,0.4c0.3,0,0.4-0.2,0.6-0.3c0.3-0.2,0.8,0,1.2,0
	c0.3,0,0.6-0.1,0.9-0.2c0.3-0.1,0.7-0.1,1-0.3c0,0,0.5-0.2,0.5-0.2c0.2,0.3-0.2,0.7-0.2,0.7c-0.3,0.5-0.6,0.9-1,1.3
	c-0.2,0.3-0.4,0.5-0.7,0.8c-0.3,0.3-0.6,0.7-0.9,1.1c-0.7,0.9-0.8,1.7-0.8,1.7c0,0.1,0,0.1,0,0.2c0,0.1,0,0.2,0,0.3s0,0.2,0,0.3
	c0,0.1,0,0.2,0,0.3c0,0,0,0.1,0,0.1c0,0.1,0,0.3,0,0.4c0,0.1-0.1,0.1-0.1,0.2l0,0.1l0,0c0,0,0,0.1-0.1,0.1c0,0,0,0,0,0
	c0,0-0.1,0-0.1,0c0,0-0.1,0-0.1,0c-0.2,0-0.2,0.3-0.2,0.3v0c0,0,0,0.1,0,0.1c0,0,0,0.1,0,0.1c0,0-0.1,0-0.1,0c0,0,0,0,0,0
	c0,0-0.1-0.1-0.2-0.1c-0.1,0-0.1,0.1-0.2,0.1c-0.1,0.2,0,0.4,0,0.5c0,0,0,0.1,0.1,0.2h-0.1l-0.1,0l0,0.1c-0.1,0.3,0.2,0.4,0.3,0.5
	c0,0,0,0,0,0c0,0,0,0-0.1,0l-0.1,0l0,0.1c0,0.1,0.1,0.3,0.2,0.4c0,0,0,0,0,0c0,0,0,0.1,0,0.2c-0.1,0-0.2,0-0.2,0l-0.2-0.1l-0.1,0.2
	c-0.1,0.1,0,0.3,0,0.4c0.1,0.1,0.2,0.2,0.3,0.2c0,0.1-0.1,0.2,0,0.3c0,0.1,0.1,0.1,0.1,0.2c0,0,0,0,0,0c0,0.1,0.1,0.2,0.2,0.3
	c0,0-0.1,0.1-0.1,0.1c0,0,0,0,0,0c0,0.1-0.1,0.2-0.1,0.3l0,0.1l0.1,0h0c0,0.1,0,0.1,0,0.2c0,0,0,0.1,0,0.1c0,0.1-0.1,0.1-0.1,0.2
	c0,0-0.1,0.1-0.1,0.2c-0.3,0.1-1.6,0.9-2.2,1.1c-0.1,0.1-0.3,0.1-0.5,0.1c-0.6,0.2-1.4,0.4-1.7,1.5c-0.4,1.4-0.8,2.4-1,2.9l-0.1,0.2
	c-0.2,0.4-0.3,0.7-0.3,1c0,0.2-0.1,0.4-0.2,0.6c-0.1,0-0.1,0.1-0.2,0.1c-0.2,0.1-0.3,0.2-0.4,0.5c0,0.1,0,0.2-0.1,0.3
	c0,0.2-0.1,0.4-0.2,0.5c0,0-0.1,0.1-0.1,0.1c-0.1,0.2-0.3,0.4-0.2,0.8c0,0.1,0.1,0.7,0.4,1c0.1,0.2,0.3,0.4,0.4,0.6l0.1,0.1
	c0,0,0,0.1,0.1,0.1c0.1,0.2,0.2,0.4,0.6,0.4c0,0,0.1,0,0.1,0c0.6-0.1,0.8-1,1-1.5c0-0.1,0-0.1,0.1-0.2c0.1-0.3,0.2-0.7,0.3-1
	c0.1-0.5,0.2-0.9,0.4-1.3c0.1-0.3,1.5-3.3,2.9-4c1.3-0.6,2.1-0.7,3.1-0.9l0.1,0c1.1-0.2,2.9-0.8,4.1-1.6c1.2-0.8,1.6-1.6,2.2-2.8
	c0.1-0.1,0.2-0.3,0.2-0.5c0.1-0.2,0.2-0.4,0.3-0.6l0.1-0.1c0.4,0.2,0.9,0.8,1.3,2c0.5,1.5,0.2,1.9-0.3,3c-0.5,1.2-0.7,1.1,0.5,2.5
	c0.4,0.5,1,1.1,1.4,1.6c0.3,0.4,0.6,0.8,0.8,1c0.3,0.3,1.1,0.8,1.3,1.1c0.2,0.3,0.5,0.7,0.6,0.8c0,0.2,0,0.6,0.4,0.8
	c0.4,0.2,0.9,0.3,1.1,0.2c0,0,1,0.4,1.5,0.1c0,0,0.9,0.1,1.1-0.1c0.2-0.2,0.3-0.3,0.3-0.4c0-0.1-0.2-1-0.8-1.3
	c-0.6-0.3-1.1-0.4-1.4-0.5c-0.3-0.1-0.7-0.3-1.2-0.9c-0.2-0.3-0.5-0.7-0.8-1l-0.2-0.2c-0.5-0.6-1.3-1.3-1.1-2.5
	c0.3-1.6,1-2.4,1.6-3.4c0.5-1,1.2-2.1,1.3-2.6c0.1-0.3,0.1-0.7,0.2-1c0.1-0.3,0.1-0.6,0.3-0.8c0.1-0.1,0.4-0.1,0.6-0.1
	c0.1,0,0.2,0,0.3,0.1c0.3,0,0.7,0.1,1,0.2c0.9,0.2,1.8,0.3,2.7,0.5c0.4,0.1,0.8,0.2,1.2,0.3c1.4,0.5,2.4,1.3,3.5,1.2l0.4,0
	c0.1,0.9,0.3,2.1,0.4,2.6c0.2,0.8,0.3,1.2,0.4,1.6c0.1,0.4,0.2,0.8,0.2,1c0,0.2-0.1,0.4-0.1,0.4s-0.3-0.1-0.5,0.3
	c-0.2,0.4-0.5,0.5-0.5,0.5s-0.9,0-1.2,0.1c-0.3,0.1-0.8,0.3-0.9,0.6c-0.1,0.3-0.4,0.2-0.5,0.4c-0.1,0.2-0.8,1-0.8,1.6
	c0,0.6,0.5,1,0.8,0.9c0.4-0.1,0.6-0.3,0.8-0.2c0.2,0,1-0.1,1.2-0.5c0.3-0.4,0.7-0.6,1.1-0.8c0.4-0.2,1.5-0.5,1.9-0.6
	c0.4-0.1,1.8-0.4,1.5-1.8c-0.2-1.4-0.2-3-0.3-3.7c-0.1-0.5,0-1.7,0.1-2.6l1.6-0.1c0.1,0,0.2-0.1,0.2-0.1c0.1,0,0.2-0.1,0.3-0.1
	c0.2,0,0.3-0.1,0.5-0.1c0.3,0,0.5-0.1,0.8-0.1c0.2,0,0.4,0,0.5,0c0.3,0,0.5,0,0.8-0.1c0,0,0.1,0,0.1,0c0.1,0.2,0.2,0.4,0.3,0.5
	c0.2,0.3,0.3,0.8,0.6,1.1c0.3,0.4,0.4,0.9,0.8,1.2c0.4,0.2,1.9,0.6,2.3,0.7c0.8,0.2,1.5,0.5,2.2,0.8c0.8,0.3,4.3,1.7,4.8,1.7
	c0.5,0.1,1.6,0.3,1.9,0.5c0.3,0.2,1.3,1.1,1.7,1.4c0.3,0.2,1,0.9,1,0.9s0.2,1.3,1.2,1.1c0,0,0.1,0.4,1,0.1c0.4-0.1,0.8-0.1,1.2-0.2
	c0.3-0.1,0.8-0.1,0.9-0.4c0.1-0.3-0.3-0.9-0.5-1.1c-0.2-0.2-0.7-0.2-0.9-0.4c-0.3-0.2-0.7-0.2-0.9-0.5c-0.3-0.4-1.2-1.1-1.2-1.1
	s-1.2-1.5-1.6-1.8c-0.4-0.3-2.2-1.4-3.2-1.7c-1-0.3-3.8-1.9-4.3-2.4c-0.1-0.1-0.2-0.2-0.3-0.3l-0.5-0.8c-0.2-0.4-0.5-0.7-0.6-1.2
	c0-0.1,0-0.2,0-0.3c0,0-0.1-0.4-0.2-0.7l0,0c0-0.1,0-0.2,0.1-0.3c0,0,0,0,0,0c0.1-0.1,0.2-0.1,0.2-0.2c0-0.1,0-0.3,0-0.4
	c0-0.1,0.1,0,0.2-0.1c0.1-0.2,0.1-0.4,0.2-0.6c0.1-0.1,0.1-0.1,0.2-0.1c0.1,0,0.1,0,0.2,0c0,0,0.1-0.1,0.1-0.1
	c0.1-0.1,0.1-0.1,0.2-0.2c0.1-0.2,0.1-0.3,0.2-0.5c0-0.1,0.1-0.3,0.1-0.4c0.2,0,0.3,0,0.3-0.2c0-0.1,0-0.3,0-0.4
	c0.1,0,0.1,0,0.1,0.1c0.1-0.1,0.1-0.3,0.1-0.4c0.1,0.1,0.2,0.3,0.3,0.3c0-0.1,0.1-0.2,0.1-0.3c0-0.1,0-0.2,0.1-0.3
	c0.1-0.2,0.2-0.5,0.2-0.7c0,0.1,0,0.2,0.2,0.2c0-0.1,0.1-0.2,0.1-0.3c0-0.1,0-0.2,0-0.3c0,0,0,0,0.1,0c0.1-0.2,0.5-0.3,0.5-0.5
	c0-0.1-0.1-0.3,0-0.4c0-0.1,0.4,0,0.5-0.3c0,0,0,0,0,0c0.1-0.1,0.2-0.1,0.3-0.2c0.1,0,0.3,0.1,0.4,0c0.1,0,0.2-0.1,0.3-0.2
	c0.2-0.1,0.5,0.1,0.7,0c0.1,0,0.2-0.1,0.3-0.1c0.2,0,0.4,0.1,0.5,0.2c0.2,0.1,0.4,0.2,0.6,0.3c0.3,0.2,0.7,0.4,1,0.5
	c0.3,0.1,1.5,0.2,1.8,0c0.3-0.2,0.6-0.5,0.5-0.8c0,0,0.4,0.2,0.5,0c0.1-0.3,0.1-0.9-0.5-1.4c-0.2-0.2-0.4-0.3-0.4-0.3
	c0.2,0,1.6,0.1,1.9-0.2c0.4-0.3,0.6-0.6,0.6-0.6s0.3,0,0.5-0.2c0.2-0.2,0.2-0.4,0.3-0.7C521.7,277.6,521.8,277,521.7,276.9"/>
<path class="st0" d="M162.4,240.6c-61.8,1.8-109,24.1-138.7,46.9c-2,1.5-2.9,3.5-1.9,5c1.3,2.1,5.2,1.1,7.3-0.1
	c26.8-16,53.4-23.8,84.1-28.7c27.2-4.4,54.6-4.4,81.9-1.9c25.3,2.3,50.3,6.6,74.8,13c27.3,7.1,54.5,15,81.8,22.3
	c33.1,8.8,66.5,15.5,100.8,16.7c28.2,0.9,56.1-2.1,83.6-8.5c28.4-6.6,53-15.3,79.1-28.3c2.9-1.5,6-3.5,5.5-5.5
	c-0.5-1.7-2.5-1.7-4-1.2c-4.6,1.9-9,4-13.6,6c-38,16-77.4,26.3-118.8,28.1c-21.5,1-42.8-0.7-64-4.5c-29.1-5.1-57.4-13.5-85.4-22.9
	c-27.1-9.1-54.1-18.4-82-24.8C223.3,245.2,190.4,239.8,162.4,240.6"/>
</svg>
