<svg xmlns="http://www.w3.org/2000/svg" width="100%" viewBox="0 0 88 32" fill="none" class="header__logo-svg"><path d="M86.3177 30.3873C86.3183 30.7059 86.2243 31.0176 86.0476 31.2829C85.8709 31.5481 85.6195 31.7549 85.3252 31.8772C85.0309 31.9994 84.7069 32.0315 84.3943 31.9695C84.0817 31.9075 83.7946 31.7541 83.5692 31.5287C83.3439 31.3034 83.1905 31.0162 83.1284 30.7036C83.0664 30.391 83.0986 30.0671 83.2208 29.7728C83.343 29.4784 83.5499 29.227 83.8151 29.0503C84.0803 28.8737 84.392 28.7797 84.7107 28.7803C85.1366 28.7811 85.5449 28.9506 85.8461 29.2518C86.1473 29.553 86.3169 29.9613 86.3177 30.3873ZM86.0357 30.3873C86.0339 30.1243 85.9542 29.8677 85.8067 29.6499C85.6593 29.4322 85.4506 29.263 85.207 29.1637C84.9635 29.0645 84.696 29.0396 84.4383 29.0922C84.1806 29.1448 83.9443 29.2726 83.7592 29.4594C83.5741 29.6462 83.4484 29.8837 83.3982 30.1419C83.3479 30.4 83.3752 30.6673 83.4767 30.9099C83.5781 31.1525 83.7492 31.3597 83.9683 31.5052C84.1874 31.6507 84.4447 31.728 84.7077 31.7274C84.8829 31.7266 85.0562 31.6913 85.2177 31.6235C85.3793 31.5558 85.5259 31.4568 85.6492 31.3324C85.7726 31.2079 85.8702 31.0604 85.9365 30.8982C86.0028 30.7361 86.0365 30.5624 86.0357 30.3873ZM85.0836 30.5843L85.4232 31.2089H85.0503L84.7622 30.6541H84.5227V31.2089H84.1801V29.5656H84.735C84.8118 29.5558 84.8899 29.5622 84.9642 29.5843C85.0385 29.6065 85.1074 29.6438 85.1664 29.694C85.2255 29.7442 85.2734 29.8062 85.3072 29.8759C85.341 29.9457 85.3598 30.0217 85.3626 30.0992C85.3693 30.1986 85.3464 30.2978 85.2967 30.3841C85.2471 30.4705 85.1729 30.5402 85.0836 30.5843ZM84.5227 30.3418H84.735C84.9169 30.3418 85.02 30.2508 85.02 30.1174C85.02 29.984 84.9169 29.887 84.735 29.887H84.5227V30.3418Z" fill="#FF6A00"></path><path d="M87.3466 12.3464H58.0117V0H74.9911C78.2647 0 81.4043 1.30046 83.7191 3.61529C86.034 5.93012 87.3344 9.06971 87.3344 12.3434L87.3466 12.3464Z" fill="#FF6A00"></path><path d="M12.3434 19.6506V0H0V31.997H24.899V19.6506H12.3434Z" fill="#16105F"></path><path d="M70.3438 12.3467V24.6901H74.9918C78.2655 24.6901 81.4051 23.3896 83.7199 21.0748C86.0348 18.7599 87.3352 15.6203 87.3352 12.3467H70.3438Z" fill="#19C395"></path><path d="M31.119 0H21.1133V12.3464H31.8133V31.997H44.1567V12.3464H43.4775C41.8551 12.348 40.2483 12.0298 38.749 11.4101C37.2497 10.7903 35.8872 9.88115 34.7394 8.73452C33.5917 7.58789 32.6812 6.22629 32.0599 4.72757C31.4387 3.22884 31.119 1.62237 31.119 0Z" fill="#16105F"></path><path d="M54.3008 0V12.3464H43.4643C41.843 12.3464 40.2375 12.0271 38.7396 11.4066C37.2416 10.7861 35.8806 9.8767 34.7341 8.73023C33.5876 7.58376 32.6782 6.2227 32.0577 4.72476C31.4373 3.22683 31.1179 1.62135 31.1179 0L54.3008 0Z" fill="#FF6A00"></path><path d="M70.343 12.3467V31.9972H58.0117V24.6901C58.0117 21.4185 59.3105 18.2807 61.6227 15.9663C63.9349 13.6518 67.0714 12.3499 70.343 12.3467Z" fill="#007472"></path></svg>